#!OML:ASF F:\VICON\USERDATA\INSTALL\rory3\rory3.ASF
:FULLY-SPECIFIED
:DEGREES
108
root 1.01724 14.7654 -17.1794 9.92231 0.532468 -1.0945
lowerback 20.6512 -0.57017 -0.039137
upperback 2.8275 -0.529579 2.38817
thorax -8.45317 -0.212681 2.76948
lowerneck -26.7208 -4.89038 -8.44599
upperneck 7.38196 -4.76679 7.59128
head 6.86295 -1.84333 3.23799
rclavicle -1.35174e-014 3.02153e-014
rhumerus -25.0683 -4.43548 -80.1374
rradius 40.5909
rwrist 12.3212
rhand -15.0834 13.8842
rfingers 7.12502
rthumb 11.0843 -15.8031
lclavicle -1.35174e-014 3.02153e-014
lhumerus -17.4724 8.28404 84.8773
lradius 25.7917
lwrist -12.8639
lhand -19.7005 25.4034
lfingers 7.12502
lthumb 6.62896 55.2797
rfemur -50.6974 -3.11772 25.3797
rtibia 81.7693
rfoot -27.5581 -19.4716
rtoes -8.51084
lfemur -52.5506 7.17425 -19.4856
ltibia 81.581
lfoot -30.4911 -5.35568
ltoes -6.33949
109
root 1.00677 14.8657 -17.1515 9.74945 0.651835 -1.04474
lowerback 20.4969 -0.555561 -0.215167
upperback 2.76657 -0.545109 2.44122
thorax -8.43385 -0.213414 2.9303
lowerneck -26.3888 -4.89859 -8.60236
upperneck 6.98321 -4.77006 7.83884
head 6.69457 -1.83403 3.34647
rclavicle -8.74653e-015 5.96354e-015
rhumerus -25.3531 -4.93723 -79.8072
rradius 40.014
rwrist 12.3241
rhand -15.8263 15.118
rfingers 7.12502
rthumb 10.3677 -14.6064
lclavicle -8.74653e-015 5.96354e-015
lhumerus -17.7485 8.52088 84.933
lradius 25.7774
lwrist -12.1465
lhand -20.6064 25.4402
lfingers 7.12502
lthumb 5.75433 55.3421
rfemur -49.6004 -3.00193 25.2726
rtibia 80.4835
rfoot -27.3927 -19.4303
rtoes -7.92806
lfemur -51.5468 6.77679 -19.3736
ltibia 80.404
lfoot -30.2472 -4.89503
ltoes -8.28506
110
root 0.998134 14.9815 -17.1246 9.57311 0.737225 -0.915131
lowerback 20.309 -0.539181 -0.464389
upperback 2.74715 -0.575552 2.48809
thorax -8.34888 -0.220221 3.12852
lowerneck -26.242 -4.96529 -8.77365
upperneck 6.75503 -4.82537 7.99398
head 6.61153 -1.85495 3.4184
rclavicle -1.19271e-015 5.1684e-015
rhumerus -25.4813 -5.43339 -79.4469
rradius 39.3801
rwrist 12.6501
rhand -16.9854 15.8055
rfingers 7.12502
rthumb 9.24945 -13.9716
lclavicle -1.19271e-015 5.1684e-015
lhumerus -18.0121 8.46992 85.0873
lradius 25.7769
lwrist -10.4914
lhand -22.0969 24.7017
lfingers 7.12502
lthumb 4.31521 54.6378
rfemur -48.4664 -2.92204 25.0303
rtibia 78.9401
rfoot -26.8907 -19.4391
rtoes -8.27491
lfemur -50.4449 6.40616 -19.4068
ltibia 78.9496
lfoot -29.7778 -4.39082
ltoes -10.3378
111
root 0.990999 15.1104 -17.0961 9.44963 0.697006 -0.880062
lowerback 20.0793 -0.526482 -0.622081
upperback 2.67281 -0.591683 2.51473
thorax -8.30326 -0.222684 3.24832
lowerneck -26.2349 -5.02873 -8.70454
upperneck 6.81513 -4.92751 7.9301
head 6.63501 -1.90796 3.37196
rclavicle 1.09332e-014 -1.66979e-014
rhumerus -25.771 -5.76287 -79.2004
rradius 38.9434
rwrist 12.5585
rhand -17.4354 15.076
rfingers 7.12502
rthumb 8.81517 -14.7199
lclavicle 1.09332e-014 -1.66979e-014
lhumerus -18.3989 8.53775 85.0441
lradius 25.9863
lwrist -10.3695
lhand -21.8153 24.6946
lfingers 7.12502
lthumb 4.58713 54.6249
rfemur -47.3019 -2.67171 24.8471
rtibia 77.2075
rfoot -26.2964 -19.2998
rtoes -8.69667
lfemur -49.3003 6.15943 -19.3527
ltibia 77.3205
lfoot -29.1567 -4.24557
ltoes -10.9593
112
root 0.98692 15.251 -17.0595 9.20705 0.670731 -0.956169
lowerback 19.8296 -0.499183 -0.515941
upperback 2.71621 -0.543315 2.43629
thorax -8.12524 -0.206994 3.08187
lowerneck -26.556 -5.05365 -8.3992
upperneck 6.99875 -5.03373 7.85275
head 6.74206 -1.94919 3.28152
rclavicle -6.75868e-015 -9.93923e-015
rhumerus -25.9788 -6.34619 -79.1197
rradius 38.3738
rwrist 12.0743
rhand -17.4731 14.4178
rfingers 7.12502
rthumb 8.77883 -15.3796
lclavicle -6.75868e-015 -9.93923e-015
lhumerus -18.6578 8.60154 84.7835
lradius 26.465
lwrist -11.8914
lhand -19.6505 25.5113
lfingers 7.12502
lthumb 6.6772 55.386
rfemur -45.7974 -2.39783 24.7433
rtibia 75.2901
rfoot -25.6476 -19.0042
rtoes -8.85928
lfemur -47.8712 5.85476 -19.153
ltibia 75.565
lfoot -28.5566 -4.32955
ltoes -10.0085
113
root 0.983124 15.4078 -17.0174 8.83243 0.7289 -1.00123
lowerback 19.6144 -0.482876 -0.358369
upperback 2.86307 -0.503274 2.32211
thorax -7.85314 -0.198628 2.84883
lowerneck -26.9081 -5.0568 -8.31476
upperneck 7.10394 -5.07591 8.07568
head 6.83894 -1.93713 3.33617
rclavicle -1.41137e-014 1.51076e-014
rhumerus -26.1009 -6.99511 -79.0626
rradius 37.6597
rwrist 11.7042
rhand -17.6876 14.4439
rfingers 7.12502
rthumb 8.57183 -15.3621
lclavicle -1.41137e-014 1.51076e-014
lhumerus -18.7745 8.28084 84.6824
lradius 26.7559
lwrist -11.7189
lhand -18.7838 26.1137
lfingers 7.12502
lthumb 7.51382 55.9602
rfemur -43.9895 -2.25292 24.5874
rtibia 73.1842
rfoot -24.9913 -18.5777
rtoes -8.8515
lfemur -46.1425 5.47591 -18.9567
ltibia 73.6404
lfoot -27.8302 -4.70017
ltoes -7.88939
114
root 0.982621 15.5827 -16.9803 8.51548 0.897726 -0.997911
lowerback 19.564 -0.545039 -0.280517
upperback 2.7423 -0.566836 2.31932
thorax -7.95518 -0.229312 2.81895
lowerneck -26.7293 -5.00798 -8.43842
upperneck 7.19186 -5.0064 8.2003
head 6.84384 -1.89919 3.4088
rclavicle 8.34896e-015 2.78299e-015
rhumerus -26.6273 -7.35254 -78.7812
rradius 36.9635
rwrist 11.7983
rhand -17.7124 14.7976
rfingers 7.12502
rthumb 8.54785 -15.0093
lclavicle 8.34896e-015 2.78299e-015
lhumerus -19.3843 7.79824 84.7581
lradius 26.6983
lwrist -9.8123
lhand -20.1979 25.2927
lfingers 7.12502
lthumb 6.14879 55.1834
rfemur -42.2053 -2.30724 24.4041
rtibia 70.9302
rfoot -24.3775 -17.8964
rtoes -8.2093
lfemur -44.4671 5.10547 -18.8815
ltibia 71.5051
lfoot -26.814 -4.88325
ltoes -7.26459
115
root 0.984053 15.763 -16.9492 8.33107 1.02786 -1.02914
lowerback 19.4832 -0.614233 -0.226983
upperback 2.43488 -0.636027 2.38334
thorax -8.24367 -0.257663 2.88058
lowerneck -26.3117 -4.98455 -8.65519
upperneck 7.37995 -4.95939 8.28282
head 6.84867 -1.88434 3.48003
rclavicle -7.95139e-016 3.97569e-016
rhumerus -27.2639 -7.68676 -78.417
rradius 36.1652
rwrist 12.0438
rhand -17.6979 15.1057
rfingers 7.12502
rthumb 8.56184 -14.7007
lclavicle -7.95139e-016 3.97569e-016
lhumerus -20.2871 7.76574 84.75
lradius 26.7705
lwrist -9.33635
lhand -20.3731 25.2157
lfingers 7.12502
lthumb 5.97961 55.1113
rfemur -40.6084 -2.398 24.2801
rtibia 68.58
rfoot -23.5084 -17.0703
rtoes -7.47036
lfemur -43.002 4.80445 -18.8312
ltibia 69.2372
lfoot -25.5291 -4.76563
ltoes -8.29481
